 http://www.shotpix.com/images/06454501194209341974.jpg

 
http://www.imdb.com/title/tt1397280/



Plot:In Istanbul, retired CIA operative Bryan Mills and his wife are taken hostage by the father of a kidnapper Mills killed while rescuing his daughter.
 


Director: 
Olivier Megaton

 Writers: 
Luc Besson (screenplay), Robert Mark Kamen (screenplay)
 
Stars:
 Liam Neeson, Famke Janssen and Maggie Grace

Genres:
 Action | Crime | Thriller 


Country:
France 

Language:
English 


Format                                   : AVI
Format/Info                              : Audio Video Interleave
File size                                : 1.36 GiB
Duration                                 : 1h 32mn
Overall bit rate                         : 2 095 Kbps
Writing application                      : VirtualDubMod 1.5.10.2 (build 2542/release)
Writing library                          : VirtualDubMod build 2542/release

Video
ID                                       : 0
Format                                   : MPEG-4 Visual
Format profile                           : Advanced Simple@L5
Format settings, BVOP                    : 4
Format settings, QPel                    : No
Format settings, GMC                     : No warppoints
Format settings, Matrix                  : Default (H.263)
Muxing mode                              : Packed bitstream
Codec ID                                 : XVID
Codec ID/Hint                            : XviD
Duration                                 : 1h 32mn
Bit rate                                 : 1 704 Kbps
Width                                    : 720 pixels
Height                                   : 304 pixels
Display aspect ratio                     : 2.35:1
Frame rate                               : 23.976 fps
Color space                              : YUV
Chroma subsampling                       : 4:2:0
Bit depth                                : 8 bits
Scan type                                : Progressive
Compression mode                         : Lossy
Bits/(Pixel*Frame)                       : 0.325
Stream size                              : 1.10 GiB (81%)
Writing library                          : XviD 64

Audio
ID                                       : 1
Format                                   : AC-3
Format/Info                              : Audio Coding 3
Mode extension                           : CM (complete main)
Format settings, Endianness              : Big
Codec ID                                 : 2000
Duration                                 : 1h 32mn
Bit rate mode                            : Constant
Bit rate                                 : 384 Kbps
Channel(s)                               : 6 channels
Channel positions                        : Front: L C R, Side: L R, LFE
Sampling rate                            : 44.1 KHz
Bit depth                                : 16 bits
Compression mode                         : Lossy
Stream size                              : 253 MiB (18%)
Alignment                                : Split accross interleaves
Interleave, duration                     : 42 ms (1.01 video frame)
Interleave, preload duration             : 500 ms

 
http://www.shotpix.com/images/61222820670227549216.jpg 
http://www.shotpix.com/images/12994597077629601225.jpg 
http://www.shotpix.com/images/55875408695981964785.jpg 
http://www.shotpix.com/images/39898405843057273361.jpg